<mxfile host="65bd71144e">
    <diagram id="OCDimKktfQahFT7yAsDO" name="Page-1">
        <mxGraphModel dx="2416" dy="567" grid="1" gridSize="10" guides="1" tooltips="1" connect="1" arrows="1" fold="1" page="1" pageScale="1" pageWidth="850" pageHeight="1100" background="#ffffff" math="0" shadow="0">
            <root>
                <mxCell id="0"/>
                <mxCell id="1" parent="0"/>
                <mxCell id="UNSVgzjggnh8WNsOpvjD-12" value="JailPerimeter.locations" style="swimlane;fontStyle=0;childLayout=stackLayout;horizontal=1;startSize=26;fillColor=#6a00ff;horizontalStack=0;resizeParent=1;resizeParentMax=0;resizeLast=0;collapsible=1;marginBottom=0;swimlaneFillColor=#ffffff;align=center;fontSize=14;strokeColor=#3700CC;fontColor=#FFFFFF;" parent="1" vertex="1">
                    <mxGeometry x="-1540" y="111" width="470" height="112" as="geometry">
                        <mxRectangle x="-280" y="260" width="100" height="26" as="alternateBounds"/>
                    </mxGeometry>
                </mxCell>
                <mxCell id="eMt_9bZ4aXB2ffqZ6rd0-16" value="id" style="shape=partialRectangle;top=0;left=0;right=0;bottom=1;align=left;verticalAlign=middle;fillColor=none;spacingLeft=90;spacingRight=4;overflow=hidden;rotatable=0;points=[[0,0.5],[1,0.5]];portConstraint=eastwest;dropTarget=0;fontStyle=5;fontSize=12;fontColor=#000000;" parent="UNSVgzjggnh8WNsOpvjD-12" vertex="1">
                    <mxGeometry y="26" width="470" height="30" as="geometry"/>
                </mxCell>
                <mxCell id="eMt_9bZ4aXB2ffqZ6rd0-17" value="Primary Key" style="shape=partialRectangle;top=0;left=0;bottom=0;fillColor=none;align=right;verticalAlign=middle;spacingLeft=4;spacingRight=4;overflow=hidden;rotatable=0;points=[];portConstraint=eastwest;part=1;fontSize=12;fontColor=#000000;fontStyle=1" parent="eMt_9bZ4aXB2ffqZ6rd0-16" vertex="1" connectable="0">
                    <mxGeometry width="90" height="30" as="geometry"/>
                </mxCell>
                <mxCell id="10" value="description: (where is it, or what is the location called?)" style="shape=partialRectangle;top=0;left=0;right=0;bottom=0;align=left;verticalAlign=top;fillColor=none;spacingLeft=90;spacingRight=4;overflow=hidden;rotatable=0;points=[[0,0.5],[1,0.5]];portConstraint=eastwest;dropTarget=0;fontSize=12;fontColor=#000000;" parent="UNSVgzjggnh8WNsOpvjD-12" vertex="1">
                    <mxGeometry y="56" width="470" height="26" as="geometry"/>
                </mxCell>
                <mxCell id="11" value="varchar(45)*" style="shape=partialRectangle;top=0;left=0;bottom=0;fillColor=none;align=right;verticalAlign=top;spacingLeft=4;spacingRight=4;overflow=hidden;rotatable=0;points=[];portConstraint=eastwest;part=1;fontSize=12;fontColor=#000000;fontStyle=1" parent="10" vertex="1" connectable="0">
                    <mxGeometry width="90" height="26" as="geometry"/>
                </mxCell>
                <mxCell id="24" value="removed:Â  flag for removal" style="shape=partialRectangle;top=0;left=0;right=0;bottom=0;align=left;verticalAlign=top;spacingLeft=90;spacingRight=4;overflow=hidden;rotatable=0;points=[[0,0.5],[1,0.5]];portConstraint=eastwest;dropTarget=0;fontSize=12;fillColor=none;fontColor=#000000;" parent="UNSVgzjggnh8WNsOpvjD-12" vertex="1">
                    <mxGeometry y="82" width="470" height="30" as="geometry"/>
                </mxCell>
                <mxCell id="25" value="bit" style="shape=partialRectangle;top=0;left=0;bottom=0;fillColor=none;align=right;verticalAlign=top;spacingLeft=4;spacingRight=4;overflow=hidden;rotatable=0;points=[];portConstraint=eastwest;part=1;fontSize=12;fontColor=#000000;" parent="24" vertex="1" connectable="0">
                    <mxGeometry width="90" height="30" as="geometry"/>
                </mxCell>
                <mxCell id="UNSVgzjggnh8WNsOpvjD-25" value="API endpoints" style="swimlane;fontStyle=0;childLayout=stackLayout;horizontal=1;startSize=26;fillColor=#e51400;horizontalStack=0;resizeParent=1;resizeParentMax=0;resizeLast=0;collapsible=1;marginBottom=0;swimlaneFillColor=#ffffff;align=center;fontSize=14;strokeColor=#B20000;fontColor=#ffffff;" parent="1" vertex="1">
                    <mxGeometry x="-60" y="60" width="740" height="556" as="geometry">
                        <mxRectangle x="-1530" y="192" width="100" height="26" as="alternateBounds"/>
                    </mxGeometry>
                </mxCell>
                <mxCell id="aGNazhb0WE0084H1Dy3m-20" value="" style="shape=partialRectangle;top=1;left=0;right=0;bottom=0;align=left;verticalAlign=top;fillColor=none;spacingLeft=20;spacingRight=4;overflow=hidden;rotatable=0;points=[[0,0.5],[1,0.5]];portConstraint=eastwest;dropTarget=0;fontSize=12;fontStyle=1;fontColor=#000000;" parent="UNSVgzjggnh8WNsOpvjD-25" vertex="1">
                    <mxGeometry y="26" width="740" height="32" as="geometry"/>
                </mxCell>
                <mxCell id="983" value="/perimeter-checks/api/locations" style="swimlane;fontStyle=0;childLayout=stackLayout;horizontal=1;startSize=26;fillColor=#fa6800;horizontalStack=0;resizeParent=1;resizeParentMax=0;resizeLast=0;collapsible=1;marginBottom=0;swimlaneFillColor=#ffffff;align=left;fontSize=14;strokeColor=#C73500;spacingLeft=50;fontColor=#000000;" parent="UNSVgzjggnh8WNsOpvjD-25" vertex="1">
                    <mxGeometry y="58" width="740" height="86" as="geometry">
                        <mxRectangle y="172" width="740" height="26" as="alternateBounds"/>
                    </mxGeometry>
                </mxCell>
                <mxCell id="984" value="list of locations" style="shape=partialRectangle;top=0;left=0;right=0;bottom=1;align=left;verticalAlign=middle;fillColor=none;spacingLeft=121;spacingRight=4;overflow=hidden;rotatable=0;points=[[0,0.5],[1,0.5]];portConstraint=eastwest;dropTarget=0;fontStyle=0;fontSize=12;fontColor=#000000;" parent="983" vertex="1">
                    <mxGeometry y="26" width="740" height="30" as="geometry"/>
                </mxCell>
                <mxCell id="985" value="GET" style="shape=partialRectangle;top=0;left=0;bottom=0;fillColor=none;align=right;verticalAlign=middle;spacingLeft=4;spacingRight=4;overflow=hidden;rotatable=0;points=[];portConstraint=eastwest;part=1;fontSize=12;fontColor=#000000;fontStyle=1" parent="984" vertex="1" connectable="0">
                    <mxGeometry width="110" height="30" as="geometry"/>
                </mxCell>
                <mxCell id="988" value="for adding locations to the list (admin only)" style="shape=partialRectangle;top=0;left=0;right=0;bottom=1;align=left;verticalAlign=middle;fillColor=none;spacingLeft=121;spacingRight=4;overflow=hidden;rotatable=0;points=[[0,0.5],[1,0.5]];portConstraint=eastwest;dropTarget=0;fontStyle=0;fontSize=12;fontColor=#000000;" parent="983" vertex="1">
                    <mxGeometry y="56" width="740" height="30" as="geometry"/>
                </mxCell>
                <mxCell id="989" value="POST" style="shape=partialRectangle;top=0;left=0;bottom=0;fillColor=none;align=right;verticalAlign=middle;spacingLeft=4;spacingRight=4;overflow=hidden;rotatable=0;points=[];portConstraint=eastwest;part=1;fontSize=12;fontColor=#000000;fontStyle=1" parent="988" vertex="1" connectable="0">
                    <mxGeometry width="110" height="30" as="geometry"/>
                </mxCell>
                <mxCell id="HdghNCm87XY89XqpeGEa-4" value="" style="shape=partialRectangle;top=1;left=0;right=0;bottom=0;align=left;verticalAlign=top;fillColor=none;spacingLeft=20;spacingRight=4;overflow=hidden;rotatable=0;points=[[0,0.5],[1,0.5]];portConstraint=eastwest;dropTarget=0;fontSize=12;fontStyle=1;fontColor=#000000;" parent="UNSVgzjggnh8WNsOpvjD-25" vertex="1">
                    <mxGeometry y="144" width="740" height="32" as="geometry"/>
                </mxCell>
                <mxCell id="1040" value="/perimeter-checks/api/checks" style="swimlane;fontStyle=0;childLayout=stackLayout;horizontal=1;startSize=26;fillColor=#fa6800;horizontalStack=0;resizeParent=1;resizeParentMax=0;resizeLast=0;collapsible=1;marginBottom=0;swimlaneFillColor=#ffffff;align=left;fontSize=14;strokeColor=#C73500;spacingLeft=50;fontColor=#000000;" parent="UNSVgzjggnh8WNsOpvjD-25" vertex="1">
                    <mxGeometry y="176" width="740" height="86" as="geometry">
                        <mxRectangle y="172" width="740" height="26" as="alternateBounds"/>
                    </mxGeometry>
                </mxCell>
                <mxCell id="1041" value="get all the checks for a specified date (requires ?date= param)" style="shape=partialRectangle;top=0;left=0;right=0;bottom=1;align=left;verticalAlign=middle;fillColor=none;spacingLeft=121;spacingRight=4;overflow=hidden;rotatable=0;points=[[0,0.5],[1,0.5]];portConstraint=eastwest;dropTarget=0;fontStyle=0;fontSize=12;fontColor=#000000;" parent="1040" vertex="1">
                    <mxGeometry y="26" width="740" height="30" as="geometry"/>
                </mxCell>
                <mxCell id="1042" value="GET" style="shape=partialRectangle;top=0;left=0;bottom=0;fillColor=none;align=right;verticalAlign=middle;spacingLeft=4;spacingRight=4;overflow=hidden;rotatable=0;points=[];portConstraint=eastwest;part=1;fontSize=12;fontColor=#000000;fontStyle=1" parent="1041" vertex="1" connectable="0">
                    <mxGeometry width="110" height="30" as="geometry"/>
                </mxCell>
                <mxCell id="1043" value="submit a new check, which may or may not specify problems" style="shape=partialRectangle;top=0;left=0;right=0;bottom=1;align=left;verticalAlign=middle;fillColor=none;spacingLeft=121;spacingRight=4;overflow=hidden;rotatable=0;points=[[0,0.5],[1,0.5]];portConstraint=eastwest;dropTarget=0;fontStyle=0;fontSize=12;fontColor=#000000;" parent="1040" vertex="1">
                    <mxGeometry y="56" width="740" height="30" as="geometry"/>
                </mxCell>
                <mxCell id="1044" value="POST" style="shape=partialRectangle;top=0;left=0;bottom=0;fillColor=none;align=right;verticalAlign=middle;spacingLeft=4;spacingRight=4;overflow=hidden;rotatable=0;points=[];portConstraint=eastwest;part=1;fontSize=12;fontColor=#000000;fontStyle=1" parent="1043" vertex="1" connectable="0">
                    <mxGeometry width="110" height="30" as="geometry"/>
                </mxCell>
                <mxCell id="1050" value="/perimeter-checks/api/checks/{check_id}" style="swimlane;fontStyle=0;childLayout=stackLayout;horizontal=1;startSize=26;fillColor=#fa6800;horizontalStack=0;resizeParent=1;resizeParentMax=0;resizeLast=0;collapsible=1;marginBottom=0;swimlaneFillColor=#ffffff;align=left;fontSize=14;strokeColor=#C73500;spacingLeft=50;fontColor=#000000;" parent="UNSVgzjggnh8WNsOpvjD-25" vertex="1">
                    <mxGeometry y="262" width="740" height="86" as="geometry">
                        <mxRectangle y="172" width="740" height="26" as="alternateBounds"/>
                    </mxGeometry>
                </mxCell>
                <mxCell id="1051" value="supervisors can update the notes on a problem needing approval" style="shape=partialRectangle;top=0;left=0;right=0;bottom=1;align=left;verticalAlign=middle;fillColor=none;spacingLeft=121;spacingRight=4;overflow=hidden;rotatable=0;points=[[0,0.5],[1,0.5]];portConstraint=eastwest;dropTarget=0;fontStyle=0;fontSize=12;fontColor=#000000;" parent="1050" vertex="1">
                    <mxGeometry y="26" width="740" height="30" as="geometry"/>
                </mxCell>
                <mxCell id="1052" value="PATCH" style="shape=partialRectangle;top=0;left=0;bottom=0;fillColor=none;align=right;verticalAlign=middle;spacingLeft=4;spacingRight=4;overflow=hidden;rotatable=0;points=[];portConstraint=eastwest;part=1;fontSize=12;fontColor=#000000;fontStyle=1" parent="1051" vertex="1" connectable="0">
                    <mxGeometry width="110" height="30" as="geometry"/>
                </mxCell>
                <mxCell id="1056" value="remove a specific check from the active system (admin only)" style="shape=partialRectangle;top=0;left=0;right=0;bottom=1;align=left;verticalAlign=middle;fillColor=none;spacingLeft=121;spacingRight=4;overflow=hidden;rotatable=0;points=[[0,0.5],[1,0.5]];portConstraint=eastwest;dropTarget=0;fontStyle=0;fontSize=12;fontColor=#000000;" parent="1050" vertex="1">
                    <mxGeometry y="56" width="740" height="30" as="geometry"/>
                </mxCell>
                <mxCell id="1057" value="DELETE" style="shape=partialRectangle;top=0;left=0;bottom=0;fillColor=none;align=right;verticalAlign=middle;spacingLeft=4;spacingRight=4;overflow=hidden;rotatable=0;points=[];portConstraint=eastwest;part=1;fontSize=12;fontColor=#000000;fontStyle=1" parent="1056" vertex="1" connectable="0">
                    <mxGeometry width="110" height="30" as="geometry"/>
                </mxCell>
                <mxCell id="1055" value="" style="shape=partialRectangle;top=1;left=0;right=0;bottom=0;align=left;verticalAlign=top;fillColor=none;spacingLeft=20;spacingRight=4;overflow=hidden;rotatable=0;points=[[0,0.5],[1,0.5]];portConstraint=eastwest;dropTarget=0;fontSize=12;fontStyle=1;fontColor=#000000;" parent="UNSVgzjggnh8WNsOpvjD-25" vertex="1">
                    <mxGeometry y="348" width="740" height="32" as="geometry"/>
                </mxCell>
                <mxCell id="1045" value="/perimeter-checks/api/signatures" style="swimlane;fontStyle=0;childLayout=stackLayout;horizontal=1;startSize=26;fillColor=#fa6800;horizontalStack=0;resizeParent=1;resizeParentMax=0;resizeLast=0;collapsible=1;marginBottom=0;swimlaneFillColor=#ffffff;align=left;fontSize=14;strokeColor=#C73500;spacingLeft=50;fontColor=#000000;" parent="UNSVgzjggnh8WNsOpvjD-25" vertex="1">
                    <mxGeometry y="380" width="740" height="56" as="geometry">
                        <mxRectangle y="172" width="740" height="26" as="alternateBounds"/>
                    </mxGeometry>
                </mxCell>
                <mxCell id="1048" value="submit a signature, specified as either the officer (for a normal check) or supervisor (for problem approvals)" style="shape=partialRectangle;top=0;left=0;right=0;bottom=1;align=left;verticalAlign=middle;fillColor=none;spacingLeft=121;spacingRight=4;overflow=hidden;rotatable=0;points=[[0,0.5],[1,0.5]];portConstraint=eastwest;dropTarget=0;fontStyle=0;fontSize=12;fontColor=#000000;" parent="1045" vertex="1">
                    <mxGeometry y="26" width="740" height="30" as="geometry"/>
                </mxCell>
                <mxCell id="1049" value="POST" style="shape=partialRectangle;top=0;left=0;bottom=0;fillColor=none;align=right;verticalAlign=middle;spacingLeft=4;spacingRight=4;overflow=hidden;rotatable=0;points=[];portConstraint=eastwest;part=1;fontSize=12;fontColor=#000000;fontStyle=1" parent="1048" vertex="1" connectable="0">
                    <mxGeometry width="110" height="30" as="geometry"/>
                </mxCell>
                <mxCell id="EhLLk2y4zVapc5Rv_r6g-3" value="" style="shape=partialRectangle;top=1;left=0;right=0;bottom=0;align=left;verticalAlign=top;fillColor=none;spacingLeft=20;spacingRight=4;overflow=hidden;rotatable=0;points=[[0,0.5],[1,0.5]];portConstraint=eastwest;dropTarget=0;fontSize=12;fontStyle=1;fontColor=#000000;" parent="UNSVgzjggnh8WNsOpvjD-25" vertex="1">
                    <mxGeometry y="436" width="740" height="32" as="geometry"/>
                </mxCell>
                <mxCell id="1058" value="/perimeter-checks/api/approvals" style="swimlane;fontStyle=0;childLayout=stackLayout;horizontal=1;startSize=26;fillColor=#fa6800;horizontalStack=0;resizeParent=1;resizeParentMax=0;resizeLast=0;collapsible=1;marginBottom=0;swimlaneFillColor=#ffffff;align=left;fontSize=14;strokeColor=#C73500;spacingLeft=50;fontColor=#000000;" parent="UNSVgzjggnh8WNsOpvjD-25" vertex="1">
                    <mxGeometry y="468" width="740" height="56" as="geometry">
                        <mxRectangle y="172" width="740" height="26" as="alternateBounds"/>
                    </mxGeometry>
                </mxCell>
                <mxCell id="1059" value="list of checks that have a problem needing approval (without a supervisor level signature yet)" style="shape=partialRectangle;top=0;left=0;right=0;bottom=1;align=left;verticalAlign=middle;fillColor=none;spacingLeft=121;spacingRight=4;overflow=hidden;rotatable=0;points=[[0,0.5],[1,0.5]];portConstraint=eastwest;dropTarget=0;fontStyle=0;fontSize=12;fontColor=#000000;" parent="1058" vertex="1">
                    <mxGeometry y="26" width="740" height="30" as="geometry"/>
                </mxCell>
                <mxCell id="1060" value="GET" style="shape=partialRectangle;top=0;left=0;bottom=0;fillColor=none;align=right;verticalAlign=middle;spacingLeft=4;spacingRight=4;overflow=hidden;rotatable=0;points=[];portConstraint=eastwest;part=1;fontSize=12;fontColor=#000000;fontStyle=1" parent="1059" vertex="1" connectable="0">
                    <mxGeometry width="110" height="30" as="geometry"/>
                </mxCell>
                <mxCell id="rJXr3nvM8QtUQmR1BYD3-142" value="" style="shape=partialRectangle;top=1;left=0;right=0;bottom=0;align=left;verticalAlign=top;fillColor=none;spacingLeft=20;spacingRight=4;overflow=hidden;rotatable=0;points=[[0,0.5],[1,0.5]];portConstraint=eastwest;dropTarget=0;fontSize=12;fontStyle=1;fontColor=#000000;" parent="UNSVgzjggnh8WNsOpvjD-25" vertex="1">
                    <mxGeometry y="524" width="740" height="32" as="geometry"/>
                </mxCell>
                <mxCell id="rJXr3nvM8QtUQmR1BYD3-8" style="edgeStyle=orthogonalEdgeStyle;rounded=0;orthogonalLoop=1;jettySize=auto;html=1;exitX=0;exitY=0.5;exitDx=0;exitDy=0;entryX=0;entryY=0.5;entryDx=0;entryDy=0;fontColor=#000000;" parent="1" target="eMt_9bZ4aXB2ffqZ6rd0-16" edge="1">
                    <mxGeometry relative="1" as="geometry">
                        <mxPoint x="-870" y="674.4999999999995" as="sourcePoint"/>
                    </mxGeometry>
                </mxCell>
                <mxCell id="siEvHcMXIAbRzjCRH0pC-10" style="edgeStyle=orthogonalEdgeStyle;rounded=0;orthogonalLoop=1;jettySize=auto;html=1;exitX=1;exitY=0.5;exitDx=0;exitDy=0;entryX=0;entryY=0.5;entryDx=0;entryDy=0;fontColor=#000000;jumpStyle=arc;startArrow=none;" parent="1" edge="1">
                    <mxGeometry relative="1" as="geometry">
                        <mxPoint x="-1063" y="313" as="sourcePoint"/>
                        <mxPoint x="-870" y="644.4999999999995" as="targetPoint"/>
                    </mxGeometry>
                </mxCell>
                <mxCell id="990" value="JailPerimeter.checks" style="swimlane;fontStyle=0;childLayout=stackLayout;horizontal=1;startSize=26;fillColor=#6a00ff;horizontalStack=0;resizeParent=1;resizeParentMax=0;resizeLast=0;collapsible=1;marginBottom=0;swimlaneFillColor=#ffffff;align=center;fontSize=14;strokeColor=#3700CC;fontColor=#FFFFFF;" parent="1" vertex="1">
                    <mxGeometry x="-1540" y="270" width="470" height="130" as="geometry">
                        <mxRectangle x="-280" y="260" width="100" height="26" as="alternateBounds"/>
                    </mxGeometry>
                </mxCell>
                <mxCell id="991" value="id" style="shape=partialRectangle;top=0;left=0;right=0;bottom=1;align=left;verticalAlign=middle;fillColor=none;spacingLeft=90;spacingRight=4;overflow=hidden;rotatable=0;points=[[0,0.5],[1,0.5]];portConstraint=eastwest;dropTarget=0;fontStyle=5;fontSize=12;fontColor=#000000;" parent="990" vertex="1">
                    <mxGeometry y="26" width="470" height="30" as="geometry"/>
                </mxCell>
                <mxCell id="992" value="Primary Key" style="shape=partialRectangle;top=0;left=0;bottom=0;fillColor=none;align=right;verticalAlign=middle;spacingLeft=4;spacingRight=4;overflow=hidden;rotatable=0;points=[];portConstraint=eastwest;part=1;fontSize=12;fontColor=#000000;fontStyle=1" parent="991" vertex="1" connectable="0">
                    <mxGeometry width="90" height="30" as="geometry"/>
                </mxCell>
                <mxCell id="993" value="timestamp: when was this check actually performed?&#10;(logging will determine when it was entered, this is chosen by user)&#10;" style="shape=partialRectangle;top=0;left=0;right=0;bottom=0;align=left;verticalAlign=top;fillColor=none;spacingLeft=90;spacingRight=4;overflow=hidden;rotatable=0;points=[[0,0.5],[1,0.5]];portConstraint=eastwest;dropTarget=0;fontSize=12;fontColor=#000000;" parent="990" vertex="1">
                    <mxGeometry y="56" width="470" height="44" as="geometry"/>
                </mxCell>
                <mxCell id="994" value="datetime" style="shape=partialRectangle;top=0;left=0;bottom=0;fillColor=none;align=right;verticalAlign=top;spacingLeft=4;spacingRight=4;overflow=hidden;rotatable=0;points=[];portConstraint=eastwest;part=1;fontSize=12;fontColor=#000000;fontStyle=1" parent="993" vertex="1" connectable="0">
                    <mxGeometry width="90" height="44" as="geometry"/>
                </mxCell>
                <mxCell id="995" value="removed:Â  flag for removal" style="shape=partialRectangle;top=0;left=0;right=0;bottom=0;align=left;verticalAlign=top;spacingLeft=90;spacingRight=4;overflow=hidden;rotatable=0;points=[[0,0.5],[1,0.5]];portConstraint=eastwest;dropTarget=0;fontSize=12;fillColor=none;fontColor=#000000;" parent="990" vertex="1">
                    <mxGeometry y="100" width="470" height="30" as="geometry"/>
                </mxCell>
                <mxCell id="996" value="bit" style="shape=partialRectangle;top=0;left=0;bottom=0;fillColor=none;align=right;verticalAlign=top;spacingLeft=4;spacingRight=4;overflow=hidden;rotatable=0;points=[];portConstraint=eastwest;part=1;fontSize=12;fontColor=#000000;" parent="995" vertex="1" connectable="0">
                    <mxGeometry width="90" height="30" as="geometry"/>
                </mxCell>
                <mxCell id="997" value="JailPerimeter.signatures" style="swimlane;fontStyle=0;childLayout=stackLayout;horizontal=1;startSize=26;fillColor=#6a00ff;horizontalStack=0;resizeParent=1;resizeParentMax=0;resizeLast=0;collapsible=1;marginBottom=0;swimlaneFillColor=#ffffff;align=center;fontSize=14;strokeColor=#3700CC;fontColor=#FFFFFF;" parent="1" vertex="1">
                    <mxGeometry x="-1000" y="332" width="470" height="234" as="geometry">
                        <mxRectangle x="-280" y="260" width="100" height="26" as="alternateBounds"/>
                    </mxGeometry>
                </mxCell>
                <mxCell id="998" value="id" style="shape=partialRectangle;top=0;left=0;right=0;bottom=1;align=left;verticalAlign=middle;fillColor=none;spacingLeft=90;spacingRight=4;overflow=hidden;rotatable=0;points=[[0,0.5],[1,0.5]];portConstraint=eastwest;dropTarget=0;fontStyle=5;fontSize=12;fontColor=#000000;" parent="997" vertex="1">
                    <mxGeometry y="26" width="470" height="30" as="geometry"/>
                </mxCell>
                <mxCell id="999" value="Primary Key" style="shape=partialRectangle;top=0;left=0;bottom=0;fillColor=none;align=right;verticalAlign=middle;spacingLeft=4;spacingRight=4;overflow=hidden;rotatable=0;points=[];portConstraint=eastwest;part=1;fontSize=12;fontColor=#000000;fontStyle=1" parent="998" vertex="1" connectable="0">
                    <mxGeometry width="90" height="30" as="geometry"/>
                </mxCell>
                <mxCell id="1030" value="check_id: optional because we will leave blank for problem approvals" style="shape=partialRectangle;top=0;left=0;right=0;bottom=0;align=left;verticalAlign=top;fillColor=none;spacingLeft=90;spacingRight=4;overflow=hidden;rotatable=0;points=[[0,0.5],[1,0.5]];portConstraint=eastwest;dropTarget=0;fontSize=12;fontColor=#000000;" parent="997" vertex="1">
                    <mxGeometry y="56" width="470" height="24" as="geometry"/>
                </mxCell>
                <mxCell id="1031" value="int" style="shape=partialRectangle;top=0;left=0;bottom=0;fillColor=none;align=right;verticalAlign=top;spacingLeft=4;spacingRight=4;overflow=hidden;rotatable=0;points=[];portConstraint=eastwest;part=1;fontSize=12;fontColor=#000000;" parent="1030" vertex="1" connectable="0">
                    <mxGeometry width="90" height="24" as="geometry"/>
                </mxCell>
                <mxCell id="1032" value="problem_id: optional because we will leave blank for problem approvals" style="shape=partialRectangle;top=0;left=0;right=0;bottom=0;align=left;verticalAlign=top;fillColor=none;spacingLeft=90;spacingRight=4;overflow=hidden;rotatable=0;points=[[0,0.5],[1,0.5]];portConstraint=eastwest;dropTarget=0;fontSize=12;fontColor=#000000;" parent="997" vertex="1">
                    <mxGeometry y="80" width="470" height="24" as="geometry"/>
                </mxCell>
                <mxCell id="1033" value="int" style="shape=partialRectangle;top=0;left=0;bottom=0;fillColor=none;align=right;verticalAlign=top;spacingLeft=4;spacingRight=4;overflow=hidden;rotatable=0;points=[];portConstraint=eastwest;part=1;fontSize=12;fontColor=#000000;" parent="1032" vertex="1" connectable="0">
                    <mxGeometry width="90" height="24" as="geometry"/>
                </mxCell>
                <mxCell id="1000" value="user_id: lcso_id or IP address if api" style="shape=partialRectangle;top=0;left=0;right=0;bottom=0;align=left;verticalAlign=top;fillColor=none;spacingLeft=90;spacingRight=4;overflow=hidden;rotatable=0;points=[[0,0.5],[1,0.5]];portConstraint=eastwest;dropTarget=0;fontSize=12;fontColor=#000000;" parent="997" vertex="1">
                    <mxGeometry y="104" width="470" height="24" as="geometry"/>
                </mxCell>
                <mxCell id="1001" value="varchar(20)" style="shape=partialRectangle;top=0;left=0;bottom=0;fillColor=none;align=right;verticalAlign=top;spacingLeft=4;spacingRight=4;overflow=hidden;rotatable=0;points=[];portConstraint=eastwest;part=1;fontSize=12;fontColor=#000000;fontStyle=1" parent="1000" vertex="1" connectable="0">
                    <mxGeometry width="90" height="24" as="geometry"/>
                </mxCell>
                <mxCell id="1005" value="signature: text for signature name provided by user" style="shape=partialRectangle;top=0;left=0;right=0;bottom=0;align=left;verticalAlign=top;fillColor=none;spacingLeft=90;spacingRight=4;overflow=hidden;rotatable=0;points=[[0,0.5],[1,0.5]];portConstraint=eastwest;dropTarget=0;fontSize=12;fontColor=#000000;" parent="997" vertex="1">
                    <mxGeometry y="128" width="470" height="24" as="geometry"/>
                </mxCell>
                <mxCell id="1006" value="varchar(120)" style="shape=partialRectangle;top=0;left=0;bottom=0;fillColor=none;align=right;verticalAlign=top;spacingLeft=4;spacingRight=4;overflow=hidden;rotatable=0;points=[];portConstraint=eastwest;part=1;fontSize=12;fontColor=#000000;fontStyle=1" parent="1005" vertex="1" connectable="0">
                    <mxGeometry width="90" height="24" as="geometry"/>
                </mxCell>
                <mxCell id="1007" value="timestamp: when was this signed?" style="shape=partialRectangle;top=0;left=0;right=0;bottom=0;align=left;verticalAlign=top;fillColor=none;spacingLeft=90;spacingRight=4;overflow=hidden;rotatable=0;points=[[0,0.5],[1,0.5]];portConstraint=eastwest;dropTarget=0;fontSize=12;fontColor=#000000;" parent="997" vertex="1">
                    <mxGeometry y="152" width="470" height="26" as="geometry"/>
                </mxCell>
                <mxCell id="1008" value="datetime" style="shape=partialRectangle;top=0;left=0;bottom=0;fillColor=none;align=right;verticalAlign=top;spacingLeft=4;spacingRight=4;overflow=hidden;rotatable=0;points=[];portConstraint=eastwest;part=1;fontSize=12;fontColor=#000000;fontStyle=1" parent="1007" vertex="1" connectable="0">
                    <mxGeometry width="90" height="26" as="geometry"/>
                </mxCell>
                <mxCell id="1010" value="ip_address: recorded as metadata" style="shape=partialRectangle;top=0;left=0;right=0;bottom=0;align=left;verticalAlign=top;fillColor=none;spacingLeft=90;spacingRight=4;overflow=hidden;rotatable=0;points=[[0,0.5],[1,0.5]];portConstraint=eastwest;dropTarget=0;fontSize=12;fontColor=#000000;" parent="997" vertex="1">
                    <mxGeometry y="178" width="470" height="26" as="geometry"/>
                </mxCell>
                <mxCell id="1011" value="varchar(45)" style="shape=partialRectangle;top=0;left=0;bottom=0;fillColor=none;align=right;verticalAlign=top;spacingLeft=4;spacingRight=4;overflow=hidden;rotatable=0;points=[];portConstraint=eastwest;part=1;fontSize=12;fontColor=#000000;fontStyle=1" parent="1010" vertex="1" connectable="0">
                    <mxGeometry width="90" height="26" as="geometry"/>
                </mxCell>
                <mxCell id="1002" value="removed:Â  flag for removal" style="shape=partialRectangle;top=0;left=0;right=0;bottom=0;align=left;verticalAlign=top;spacingLeft=90;spacingRight=4;overflow=hidden;rotatable=0;points=[[0,0.5],[1,0.5]];portConstraint=eastwest;dropTarget=0;fontSize=12;fillColor=none;fontColor=#000000;" parent="997" vertex="1">
                    <mxGeometry y="204" width="470" height="30" as="geometry"/>
                </mxCell>
                <mxCell id="1003" value="bit" style="shape=partialRectangle;top=0;left=0;bottom=0;fillColor=none;align=right;verticalAlign=top;spacingLeft=4;spacingRight=4;overflow=hidden;rotatable=0;points=[];portConstraint=eastwest;part=1;fontSize=12;fontColor=#000000;" parent="1002" vertex="1" connectable="0">
                    <mxGeometry width="90" height="30" as="geometry"/>
                </mxCell>
                <mxCell id="1004" value="" style="edgeStyle=orthogonalEdgeStyle;rounded=0;orthogonalLoop=1;jettySize=auto;html=1;entryX=0;entryY=0.5;entryDx=0;entryDy=0;endArrow=none;endFill=0;fontColor=#000000;startArrow=none;" parent="997" source="1007" target="997" edge="1">
                    <mxGeometry relative="1" as="geometry">
                        <mxPoint x="180" y="168" as="sourcePoint"/>
                        <mxPoint x="250" y="-176.0000000000001" as="targetPoint"/>
                    </mxGeometry>
                </mxCell>
                <mxCell id="1014" value="JailPerimeter.problems" style="swimlane;fontStyle=0;childLayout=stackLayout;horizontal=1;startSize=26;fillColor=#6a00ff;horizontalStack=0;resizeParent=1;resizeParentMax=0;resizeLast=0;collapsible=1;marginBottom=0;swimlaneFillColor=#ffffff;align=center;fontSize=14;strokeColor=#3700CC;fontColor=#FFFFFF;" parent="1" vertex="1">
                    <mxGeometry x="-1540" y="450" width="470" height="170" as="geometry">
                        <mxRectangle x="-280" y="260" width="100" height="26" as="alternateBounds"/>
                    </mxGeometry>
                </mxCell>
                <mxCell id="1015" value="id" style="shape=partialRectangle;top=0;left=0;right=0;bottom=1;align=left;verticalAlign=middle;fillColor=none;spacingLeft=90;spacingRight=4;overflow=hidden;rotatable=0;points=[[0,0.5],[1,0.5]];portConstraint=eastwest;dropTarget=0;fontStyle=5;fontSize=12;fontColor=#000000;" parent="1014" vertex="1">
                    <mxGeometry y="26" width="470" height="30" as="geometry"/>
                </mxCell>
                <mxCell id="1016" value="Primary Key" style="shape=partialRectangle;top=0;left=0;bottom=0;fillColor=none;align=right;verticalAlign=middle;spacingLeft=4;spacingRight=4;overflow=hidden;rotatable=0;points=[];portConstraint=eastwest;part=1;fontSize=12;fontColor=#000000;fontStyle=1" parent="1015" vertex="1" connectable="0">
                    <mxGeometry width="90" height="30" as="geometry"/>
                </mxCell>
                <mxCell id="1017" value="check_id" style="shape=partialRectangle;top=0;left=0;right=0;bottom=1;align=left;verticalAlign=middle;fillColor=none;spacingLeft=90;spacingRight=4;overflow=hidden;rotatable=0;points=[[0,0.5],[1,0.5]];portConstraint=eastwest;dropTarget=0;fontStyle=5;fontSize=12;fontColor=#000000;" parent="1014" vertex="1">
                    <mxGeometry y="56" width="470" height="30" as="geometry"/>
                </mxCell>
                <mxCell id="1018" value="Foreign Key" style="shape=partialRectangle;top=0;left=0;bottom=0;fillColor=none;align=right;verticalAlign=middle;spacingLeft=4;spacingRight=4;overflow=hidden;rotatable=0;points=[];portConstraint=eastwest;part=1;fontSize=12;fontColor=#000000;fontStyle=1" parent="1017" vertex="1" connectable="0">
                    <mxGeometry width="90" height="30" as="geometry"/>
                </mxCell>
                <mxCell id="1037" value="location_id" style="shape=partialRectangle;top=0;left=0;right=0;bottom=1;align=left;verticalAlign=middle;fillColor=none;spacingLeft=90;spacingRight=4;overflow=hidden;rotatable=0;points=[[0,0.5],[1,0.5]];portConstraint=eastwest;dropTarget=0;fontStyle=5;fontSize=12;fontColor=#000000;" parent="1014" vertex="1">
                    <mxGeometry y="86" width="470" height="30" as="geometry"/>
                </mxCell>
                <mxCell id="1038" value="Foreign Key" style="shape=partialRectangle;top=0;left=0;bottom=0;fillColor=none;align=right;verticalAlign=middle;spacingLeft=4;spacingRight=4;overflow=hidden;rotatable=0;points=[];portConstraint=eastwest;part=1;fontSize=12;fontColor=#000000;fontStyle=1" parent="1037" vertex="1" connectable="0">
                    <mxGeometry width="90" height="30" as="geometry"/>
                </mxCell>
                <mxCell id="1019" value="comment: what is the problem?" style="shape=partialRectangle;top=0;left=0;right=0;bottom=0;align=left;verticalAlign=top;fillColor=none;spacingLeft=90;spacingRight=4;overflow=hidden;rotatable=0;points=[[0,0.5],[1,0.5]];portConstraint=eastwest;dropTarget=0;fontSize=12;fontColor=#000000;" parent="1014" vertex="1">
                    <mxGeometry y="116" width="470" height="24" as="geometry"/>
                </mxCell>
                <mxCell id="1020" value="text" style="shape=partialRectangle;top=0;left=0;bottom=0;fillColor=none;align=right;verticalAlign=top;spacingLeft=4;spacingRight=4;overflow=hidden;rotatable=0;points=[];portConstraint=eastwest;part=1;fontSize=12;fontColor=#000000;fontStyle=1" parent="1019" vertex="1" connectable="0">
                    <mxGeometry width="90" height="24" as="geometry"/>
                </mxCell>
                <mxCell id="1027" value="removed:Â  flag for removal" style="shape=partialRectangle;top=0;left=0;right=0;bottom=0;align=left;verticalAlign=top;spacingLeft=90;spacingRight=4;overflow=hidden;rotatable=0;points=[[0,0.5],[1,0.5]];portConstraint=eastwest;dropTarget=0;fontSize=12;fillColor=none;fontColor=#000000;" parent="1014" vertex="1">
                    <mxGeometry y="140" width="470" height="30" as="geometry"/>
                </mxCell>
                <mxCell id="1028" value="bit" style="shape=partialRectangle;top=0;left=0;bottom=0;fillColor=none;align=right;verticalAlign=top;spacingLeft=4;spacingRight=4;overflow=hidden;rotatable=0;points=[];portConstraint=eastwest;part=1;fontSize=12;fontColor=#000000;" parent="1027" vertex="1" connectable="0">
                    <mxGeometry width="90" height="30" as="geometry"/>
                </mxCell>
                <mxCell id="1029" value="" style="edgeStyle=orthogonalEdgeStyle;rounded=0;orthogonalLoop=1;jettySize=auto;html=1;entryX=0;entryY=0.5;entryDx=0;entryDy=0;endArrow=none;endFill=0;fontColor=#000000;startArrow=none;" parent="1014" target="1014" edge="1">
                    <mxGeometry relative="1" as="geometry">
                        <mxPoint y="153" as="sourcePoint"/>
                        <mxPoint x="250" y="-176.0000000000001" as="targetPoint"/>
                    </mxGeometry>
                </mxCell>
                <mxCell id="1034" style="edgeStyle=orthogonalEdgeStyle;html=1;exitX=0;exitY=0.5;exitDx=0;exitDy=0;entryX=1;entryY=0.5;entryDx=0;entryDy=0;strokeColor=#000000;dashed=1;" parent="1" source="1032" target="1015" edge="1">
                    <mxGeometry relative="1" as="geometry"/>
                </mxCell>
                <mxCell id="1035" style="edgeStyle=orthogonalEdgeStyle;html=1;exitX=0;exitY=0.5;exitDx=0;exitDy=0;entryX=1;entryY=0.5;entryDx=0;entryDy=0;dashed=1;strokeColor=#000000;" parent="1" source="1030" target="991" edge="1">
                    <mxGeometry relative="1" as="geometry"/>
                </mxCell>
                <mxCell id="1036" style="edgeStyle=orthogonalEdgeStyle;html=1;entryX=0;entryY=0.5;entryDx=0;entryDy=0;strokeColor=#000000;" parent="1" source="1017" target="991" edge="1">
                    <mxGeometry relative="1" as="geometry">
                        <Array as="points">
                            <mxPoint x="-1580" y="521"/>
                            <mxPoint x="-1580" y="311"/>
                        </Array>
                    </mxGeometry>
                </mxCell>
                <mxCell id="1039" style="edgeStyle=orthogonalEdgeStyle;html=1;entryX=0;entryY=0.5;entryDx=0;entryDy=0;strokeColor=#000000;" parent="1" source="1037" target="eMt_9bZ4aXB2ffqZ6rd0-16" edge="1">
                    <mxGeometry relative="1" as="geometry">
                        <Array as="points">
                            <mxPoint x="-1620" y="551"/>
                            <mxPoint x="-1620" y="152"/>
                        </Array>
                    </mxGeometry>
                </mxCell>
            </root>
        </mxGraphModel>
    </diagram>
</mxfile>